# xmcd
#
# Track frame offsets: 
#        183
#        10483
#        23795
#        36123
#        48618
#        60768
#        73473
#        93208
#        106465
#        117683
#        132463
#        145483
#        158903
#        173323
#        189820
#        202308
#
# Disc length: 2863 seconds
#
# Revision: 6
# Processed by: cddbd v1.5.2PL0 Copyright (c) Steve Scherf et al.
# Submitted via: ExactAudioCopy v0.99pb5
#
DISCID=c70b2d10,e60b2d10
DTITLE=Various Artist - Ballads of Country
DYEAR=1992
DGENRE=Country
TTITLE0=Johnny Tillotson - Send me the pillow that you dream on
TTITLE1=Kenny Rogers and The First Edition - Ruby, don't take your love 
TTITLE1=to town
TTITLE2=Patsy Cline - Crazy
TTITLE3=Eddy Arnold - Lonely again
TTITLE4=Tammy Wynette - Stand by your man
TTITLE5=Don Williams - Some broken hearts never mend
TTITLE6=Marty Robbins - El Paso
TTITLE7=Johnny Cash with The Carter Family - (There'll be) peace in th
TTITLE7=e valley (for me)
TTITLE8=Roger Miller - King of the road
TTITLE9=Glen Campbell - Rhinestone cowboy
TTITLE10=Lynn Anderson - Rose garden
TTITLE11=Faron Young - It's four in the morning
TTITLE12=Don Williams - Listen to the radio
TTITLE13=Kenny Rogers - Lucille
TTITLE14=Bobby Bare - Come sundown
TTITLE15=Hank Williams With His Drifting Cowboys - I'm so lonesome I c
TTITLE15=ould cry
EXTD=1 artist name corrected.\n4 titles corrected.
EXTT0=
EXTT1=
EXTT2=
EXTT3=
EXTT4=
EXTT5=
EXTT6=
EXTT7=
EXTT8=
EXTT9=
EXTT10=
EXTT11=
EXTT12=
EXTT13=
EXTT14=
EXTT15=
PLAYORDER=
